G04*
G04 #@! TF.GenerationSoftware,Altium Limited,Altium Designer,18.1.7 (191)*
G04*
G04 Layer_Color=32896*
%FSLAX43Y43*%
%MOMM*%
G71*
G01*
G75*
%ADD15C,0.120*%
D15*
X24380Y12470D02*
Y12070D01*
X24180Y11870D01*
X23980Y12070D01*
Y12470D01*
X23780Y12170D02*
X23380D01*
X23580Y12370D02*
Y11970D01*
X24380Y5620D02*
Y6020D01*
X24080D01*
X23980Y5920D01*
Y5620D01*
X23780D02*
Y6220D01*
X23480D01*
X23380Y6120D01*
Y5920D01*
X23480Y5820D01*
X23780D01*
X23580D02*
X23380Y5620D01*
X22781Y6220D02*
X23180D01*
Y5620D01*
X22781D01*
X23180Y5920D02*
X22980D01*
X22181Y6120D02*
X22281Y6220D01*
X22481D01*
X22581Y6120D01*
Y6020D01*
X22481Y5920D01*
X22281D01*
X22181Y5820D01*
Y5720D01*
X22281Y5620D01*
X22481D01*
X22581Y5720D01*
X21581Y6220D02*
X21981D01*
Y5620D01*
X21581D01*
X21981Y5920D02*
X21781D01*
X21381Y6220D02*
X20981D01*
X21181D01*
Y5620D01*
X23980Y4870D02*
X24080Y4970D01*
X24280D01*
X24380Y4870D01*
Y4770D01*
X24280Y4670D01*
X24080D01*
X23980Y4570D01*
Y4470D01*
X24080Y4370D01*
X24280D01*
X24380Y4470D01*
X23780Y4970D02*
Y4370D01*
X23580Y4570D01*
X23380Y4370D01*
Y4970D01*
X23180D02*
Y4370D01*
X22880D01*
X22781Y4470D01*
Y4870D01*
X22880Y4970D01*
X23180D01*
X22581D02*
X22381D01*
X22481D01*
Y4370D01*
X22581D01*
X22381D01*
X21781Y4970D02*
X21981D01*
X22081Y4870D01*
Y4470D01*
X21981Y4370D01*
X21781D01*
X21681Y4470D01*
Y4870D01*
X21781Y4970D01*
X23980Y3620D02*
X24080Y3720D01*
X24280D01*
X24380Y3620D01*
Y3220D01*
X24280Y3120D01*
X24080D01*
X23980Y3220D01*
Y3420D01*
X24180D01*
X23780Y3120D02*
Y3720D01*
X23380Y3120D01*
Y3720D01*
X23180D02*
Y3120D01*
X22880D01*
X22781Y3220D01*
Y3620D01*
X22880Y3720D01*
X23180D01*
X11130Y1370D02*
Y1970D01*
X10930Y1770D01*
X10730Y1970D01*
Y1370D01*
X10530Y1970D02*
Y1370D01*
X10230D01*
X10130Y1470D01*
Y1570D01*
X10230Y1670D01*
X10530D01*
X10230D01*
X10130Y1770D01*
Y1870D01*
X10230Y1970D01*
X10530D01*
X9531D02*
X9930D01*
Y1370D01*
X9531D01*
X9930Y1670D02*
X9730D01*
X9331Y1970D02*
Y1370D01*
X9031D01*
X8931Y1470D01*
Y1870D01*
X9031Y1970D01*
X9331D01*
X8131Y1370D02*
Y1970D01*
X7831D01*
X7731Y1870D01*
Y1670D01*
X7831Y1570D01*
X8131D01*
X7531Y1370D02*
Y1970D01*
X7231D01*
X7131Y1870D01*
Y1670D01*
X7231Y1570D01*
X7531D01*
X7331D02*
X7131Y1370D01*
X6631Y1970D02*
X6831D01*
X6931Y1870D01*
Y1470D01*
X6831Y1370D01*
X6631D01*
X6531Y1470D01*
Y1870D01*
X6631Y1970D01*
X5932Y1870D02*
X6032Y1970D01*
X6232D01*
X6332Y1870D01*
Y1470D01*
X6232Y1370D01*
X6032D01*
X5932Y1470D01*
Y1670D01*
X6132D01*
X5732Y1370D02*
Y1970D01*
X5432D01*
X5332Y1870D01*
Y1670D01*
X5432Y1570D01*
X5732D01*
X5532D02*
X5332Y1370D01*
X5132D02*
Y1770D01*
X4932Y1970D01*
X4732Y1770D01*
Y1370D01*
Y1670D01*
X5132D01*
X4532Y1370D02*
Y1970D01*
X4332Y1770D01*
X4132Y1970D01*
Y1370D01*
X3932D02*
Y1970D01*
X3732Y1770D01*
X3532Y1970D01*
Y1370D01*
X2933Y1970D02*
X3333D01*
Y1370D01*
X2933D01*
X3333Y1670D02*
X3133D01*
X2733Y1370D02*
Y1970D01*
X2433D01*
X2333Y1870D01*
Y1670D01*
X2433Y1570D01*
X2733D01*
X2533D02*
X2333Y1370D01*
X24380Y8720D02*
X23980D01*
X24180D01*
Y8120D01*
X23780D02*
Y8520D01*
X23580Y8720D01*
X23380Y8520D01*
Y8120D01*
Y8420D01*
X23780D01*
X23180Y8120D02*
Y8720D01*
X22880D01*
X22781Y8620D01*
Y8420D01*
X22880Y8320D01*
X23180D01*
X22980D02*
X22781Y8120D01*
X22181Y8620D02*
X22281Y8720D01*
X22481D01*
X22581Y8620D01*
Y8220D01*
X22481Y8120D01*
X22281D01*
X22181Y8220D01*
Y8420D01*
X22381D01*
X21581Y8720D02*
X21981D01*
Y8120D01*
X21581D01*
X21981Y8420D02*
X21781D01*
X21381Y8720D02*
X20981D01*
X21181D01*
Y8120D01*
X20181D02*
Y8720D01*
X19881D01*
X19781Y8620D01*
Y8420D01*
X19881Y8320D01*
X20181D01*
X19981D02*
X19781Y8120D01*
X19582Y8720D02*
X19182Y8120D01*
Y8720D02*
X19582Y8120D01*
X24380Y7470D02*
X23980D01*
X24180D01*
Y6870D01*
X23780D02*
Y7270D01*
X23580Y7470D01*
X23380Y7270D01*
Y6870D01*
Y7170D01*
X23780D01*
X23180Y6870D02*
Y7470D01*
X22880D01*
X22781Y7370D01*
Y7170D01*
X22880Y7070D01*
X23180D01*
X22980D02*
X22781Y6870D01*
X22181Y7370D02*
X22281Y7470D01*
X22481D01*
X22581Y7370D01*
Y6970D01*
X22481Y6870D01*
X22281D01*
X22181Y6970D01*
Y7170D01*
X22381D01*
X21581Y7470D02*
X21981D01*
Y6870D01*
X21581D01*
X21981Y7170D02*
X21781D01*
X21381Y7470D02*
X20981D01*
X21181D01*
Y6870D01*
X20181Y7470D02*
X19781D01*
X19981D01*
Y6870D01*
X19582Y7470D02*
X19182Y6870D01*
Y7470D02*
X19582Y6870D01*
X23980Y9870D02*
X24080Y9970D01*
X24280D01*
X24380Y9870D01*
Y9770D01*
X24280Y9670D01*
X24080D01*
X23980Y9570D01*
Y9470D01*
X24080Y9370D01*
X24280D01*
X24380Y9470D01*
X23780Y9970D02*
Y9370D01*
X23580Y9570D01*
X23380Y9370D01*
Y9970D01*
X22781Y9870D02*
X22880Y9970D01*
X23080D01*
X23180Y9870D01*
Y9470D01*
X23080Y9370D01*
X22880D01*
X22781Y9470D01*
X22581Y9970D02*
Y9370D01*
X22181D01*
X21981Y9970D02*
Y9370D01*
Y9570D01*
X21581Y9970D01*
X21881Y9670D01*
X21581Y9370D01*
M02*
