G04*
G04 #@! TF.GenerationSoftware,Altium Limited,Altium Designer,18.1.7 (191)*
G04*
G04 Layer_Color=65535*
%FSLAX43Y43*%
%MOMM*%
G71*
G01*
G75*
%ADD10C,0.400*%
%ADD11C,0.200*%
%ADD12C,0.127*%
%ADD13C,0.130*%
%ADD14C,0.150*%
%ADD15C,0.120*%
%ADD16C,0.500*%
D10*
X17450Y9550D02*
G03*
X17450Y9550I-100J0D01*
G01*
D11*
X3225Y13422D02*
G03*
X3225Y12948I0J-237D01*
G01*
Y13165D02*
Y13422D01*
Y12948D02*
Y13205D01*
D12*
X13278Y10524D02*
Y11476D01*
X12922Y10524D02*
Y11476D01*
X9798Y11194D02*
X10102D01*
X9798Y12006D02*
X10102D01*
X6448Y11194D02*
X6752D01*
X6448Y12006D02*
X6752D01*
X17548Y694D02*
X17852D01*
X17548Y1506D02*
X17852D01*
X17624Y13678D02*
X18576D01*
X17624Y13322D02*
X18576D01*
X12124D02*
X13076D01*
X12124Y13678D02*
X13076D01*
X17348Y11206D02*
X17652D01*
X17348Y10394D02*
X17652D01*
X20372Y10324D02*
Y11276D01*
X20728Y10324D02*
Y11276D01*
X21848Y9206D02*
X22152D01*
X21848Y8394D02*
X22152D01*
X21848Y7706D02*
X22152D01*
X21848Y6894D02*
X22152D01*
X21848Y4706D02*
X22152D01*
X21848Y3894D02*
X22152D01*
X21848Y3206D02*
X22152D01*
X21848Y2394D02*
X22152D01*
X18324Y5978D02*
X19276D01*
X18324Y5622D02*
X19276D01*
X21848Y6206D02*
X22152D01*
X21848Y5394D02*
X22152D01*
X3724Y12102D02*
X4676D01*
X3724Y12458D02*
X4676D01*
X4822Y14124D02*
Y15076D01*
X5178Y14124D02*
Y15076D01*
X8175Y12720D02*
Y13420D01*
X4950Y13745D02*
X6050D01*
X4950Y12395D02*
X6050D01*
X4950D02*
Y13745D01*
X6950D02*
X7850D01*
X6950Y12395D02*
X7850D01*
X8050Y12595D01*
X8025Y12570D02*
X8175Y12720D01*
X8000Y13595D02*
X8175Y13420D01*
X8050Y12595D02*
Y13545D01*
X7850Y13745D02*
X8050Y13545D01*
X7578Y7724D02*
Y8676D01*
X7222Y7724D02*
Y8676D01*
X7578Y3324D02*
Y4276D01*
X7222Y3324D02*
Y4276D01*
X7248Y5706D02*
X7552D01*
X7248Y4894D02*
X7552D01*
X7248Y1894D02*
X7552D01*
X7248Y2706D02*
X7552D01*
X12150Y2019D02*
Y2781D01*
X9250Y2019D02*
X12150D01*
X9250D02*
Y2781D01*
X12150D01*
X7248Y7206D02*
X7552D01*
X7248Y6394D02*
X7552D01*
X7248Y9294D02*
X7552D01*
X7248Y10106D02*
X7552D01*
X16025Y750D02*
Y1450D01*
X12800Y1775D02*
X13900D01*
X12800Y425D02*
X13900D01*
X12800D02*
Y1775D01*
X14800D02*
X15700D01*
X14800Y425D02*
X15700D01*
X15900Y625D01*
X15875Y600D02*
X16025Y750D01*
X15850Y1625D02*
X16025Y1450D01*
X15900Y625D02*
Y1575D01*
X15700Y1775D02*
X15900Y1575D01*
X11675Y12720D02*
Y13420D01*
X8450Y13745D02*
X9550D01*
X8450Y12395D02*
X9550D01*
X8450D02*
Y13745D01*
X10450D02*
X11350D01*
X10450Y12395D02*
X11350D01*
X11550Y12595D01*
X11525Y12570D02*
X11675Y12720D01*
X11500Y13595D02*
X11675Y13420D01*
X11550Y12595D02*
Y13545D01*
X11350Y13745D02*
X11550Y13545D01*
D13*
X9700Y13800D02*
X10000Y14100D01*
D14*
X8127Y13773D02*
X8450Y14100D01*
D15*
X8729Y14706D02*
X8588Y14706D01*
X8447Y14565D01*
Y14423D01*
X8729Y14140D01*
X8871D01*
X9012Y14282D01*
Y14423D01*
Y15130D02*
X8871Y14989D01*
Y14847D01*
X9153Y14565D01*
X9295D01*
X9436Y14706D01*
Y14847D01*
X9153Y15130D01*
X9012Y15130D01*
X9648Y14918D02*
X9224Y15342D01*
X9507D01*
X9507Y15625D01*
X9931Y15201D01*
X10400Y14070D02*
X9976Y14494D01*
X10188Y14706D01*
X10329Y14706D01*
X10471Y14565D01*
Y14423D01*
X10259Y14211D01*
X10400Y14918D02*
X10824Y14494D01*
Y14777D01*
X11107Y14777D01*
X10683Y15201D01*
X11248Y14918D02*
X10824Y15342D01*
X11036Y15554D01*
X11178Y15554D01*
X11319Y15413D01*
Y15271D01*
X11107Y15059D01*
X11248Y15201D02*
X11531Y15201D01*
X13420Y2620D02*
Y2020D01*
X13720D01*
X13820Y2120D01*
Y2520D01*
X13720Y2620D01*
X13420D01*
X14020Y2020D02*
Y2420D01*
X14220Y2620D01*
X14420Y2420D01*
Y2020D01*
Y2320D01*
X14020D01*
X14620Y2020D02*
Y2620D01*
X14920D01*
X15019Y2520D01*
Y2320D01*
X14920Y2220D01*
X14620D01*
X12190Y10125D02*
X12090Y10225D01*
X11891D01*
X11791Y10125D01*
Y9726D01*
X11891Y9626D01*
X12090D01*
X12190Y9726D01*
X12790Y10225D02*
X12590Y10125D01*
X12390Y9925D01*
Y9726D01*
X12490Y9626D01*
X12690D01*
X12790Y9726D01*
Y9825D01*
X12690Y9925D01*
X12390D01*
X11075Y5800D02*
X11575D01*
X11675Y5900D01*
Y6100D01*
X11575Y6200D01*
X11075D01*
X11675Y6800D02*
Y6400D01*
X11275Y6800D01*
X11175D01*
X11075Y6700D01*
Y6500D01*
X11175Y6400D01*
X14900Y11600D02*
X15300Y11000D01*
Y11600D02*
X14900Y11000D01*
X15500D02*
X15700D01*
X15600D01*
Y11600D01*
X15500Y11500D01*
X9200Y10200D02*
Y10800D01*
X9500D01*
X9600Y10700D01*
Y10500D01*
X9500Y10400D01*
X9200D01*
X9400D02*
X9600Y10200D01*
X9800D02*
X10000D01*
X9900D01*
Y10800D01*
X9800Y10700D01*
X10700Y10200D02*
X10300D01*
X10700Y10600D01*
Y10700D01*
X10600Y10800D01*
X10400D01*
X10300Y10700D01*
X6000Y10300D02*
Y10900D01*
X6300D01*
X6400Y10800D01*
Y10600D01*
X6300Y10500D01*
X6000D01*
X6200D02*
X6400Y10300D01*
X6600D02*
X6800D01*
X6700D01*
Y10900D01*
X6600Y10800D01*
X7100D02*
X7200Y10900D01*
X7400D01*
X7500Y10800D01*
Y10700D01*
X7400Y10600D01*
X7300D01*
X7400D01*
X7500Y10500D01*
Y10400D01*
X7400Y10300D01*
X7200D01*
X7100Y10400D01*
X19400Y700D02*
Y1300D01*
X19700D01*
X19800Y1200D01*
Y1000D01*
X19700Y900D01*
X19400D01*
X19600D02*
X19800Y700D01*
X20000Y800D02*
X20100Y700D01*
X20300D01*
X20400Y800D01*
Y1200D01*
X20300Y1300D01*
X20100D01*
X20000Y1200D01*
Y1100D01*
X20100Y1000D01*
X20400D01*
X27200Y15300D02*
X27000D01*
X27100D01*
Y14800D01*
X27000Y14700D01*
X26900D01*
X26800Y14800D01*
X27800Y14700D02*
X27400D01*
X27800Y15100D01*
Y15200D01*
X27700Y15300D01*
X27500D01*
X27400Y15200D01*
X23500Y11900D02*
X23400Y12000D01*
X23200D01*
X23100Y11900D01*
Y11800D01*
X23200Y11700D01*
X23400D01*
X23500Y11600D01*
Y11500D01*
X23400Y11400D01*
X23200D01*
X23100Y11500D01*
X23700Y11400D02*
X23900D01*
X23800D01*
Y12000D01*
X23700Y11900D01*
X17900Y15500D02*
X17800Y15600D01*
X17600D01*
X17500Y15500D01*
Y15100D01*
X17600Y15000D01*
X17800D01*
X17900Y15100D01*
X18100Y15500D02*
X18200Y15600D01*
X18400D01*
X18500Y15500D01*
Y15400D01*
X18400Y15300D01*
X18500Y15200D01*
Y15100D01*
X18400Y15000D01*
X18200D01*
X18100Y15100D01*
Y15200D01*
X18200Y15300D01*
X18100Y15400D01*
Y15500D01*
X18200Y15300D02*
X18400D01*
X12500Y15675D02*
X12400Y15775D01*
X12200D01*
X12100Y15675D01*
Y15275D01*
X12200Y15175D01*
X12400D01*
X12500Y15275D01*
X12700D02*
X12800Y15175D01*
X13000D01*
X13100Y15275D01*
Y15675D01*
X13000Y15775D01*
X12800D01*
X12700Y15675D01*
Y15575D01*
X12800Y15475D01*
X13100D01*
X18100Y9300D02*
Y9900D01*
X18400D01*
X18500Y9800D01*
Y9600D01*
X18400Y9500D01*
X18100D01*
X18300D02*
X18500Y9300D01*
X18700Y9800D02*
X18800Y9900D01*
X19000D01*
X19100Y9800D01*
Y9700D01*
X19000Y9600D01*
X19100Y9500D01*
Y9400D01*
X19000Y9300D01*
X18800D01*
X18700Y9400D01*
Y9500D01*
X18800Y9600D01*
X18700Y9700D01*
Y9800D01*
X18800Y9600D02*
X19000D01*
X22500Y10900D02*
X22400Y11000D01*
X22200D01*
X22100Y10900D01*
Y10500D01*
X22200Y10400D01*
X22400D01*
X22500Y10500D01*
X23100Y11000D02*
X22700D01*
Y10700D01*
X22900Y10800D01*
X23000D01*
X23100Y10700D01*
Y10500D01*
X23000Y10400D01*
X22800D01*
X22700Y10500D01*
X23500Y8400D02*
Y9000D01*
X23800D01*
X23900Y8900D01*
Y8700D01*
X23800Y8600D01*
X23500D01*
X23700D02*
X23900Y8400D01*
X24500Y9000D02*
X24300Y8900D01*
X24100Y8700D01*
Y8500D01*
X24200Y8400D01*
X24400D01*
X24500Y8500D01*
Y8600D01*
X24400Y8700D01*
X24100D01*
X23500Y6900D02*
Y7500D01*
X23800D01*
X23900Y7400D01*
Y7200D01*
X23800Y7100D01*
X23500D01*
X23700D02*
X23900Y6900D01*
X24100Y7400D02*
X24200Y7500D01*
X24400D01*
X24500Y7400D01*
Y7300D01*
X24400Y7200D01*
X24300D01*
X24400D01*
X24500Y7100D01*
Y7000D01*
X24400Y6900D01*
X24200D01*
X24100Y7000D01*
X23500Y3900D02*
Y4500D01*
X23800D01*
X23900Y4400D01*
Y4200D01*
X23800Y4100D01*
X23500D01*
X23700D02*
X23900Y3900D01*
X24100Y4500D02*
X24500D01*
Y4400D01*
X24100Y4000D01*
Y3900D01*
X23506Y2412D02*
Y3012D01*
X23806D01*
X23906Y2912D01*
Y2712D01*
X23806Y2612D01*
X23506D01*
X23706D02*
X23906Y2412D01*
X24106D02*
X24306D01*
X24206D01*
Y3012D01*
X24106Y2912D01*
X18700Y7800D02*
X18600Y7700D01*
Y7500D01*
X18700Y7400D01*
X19100D01*
X19200Y7500D01*
Y7700D01*
X19100Y7800D01*
X18600Y8000D02*
Y8400D01*
X18700D01*
X19100Y8000D01*
X19200D01*
X23500Y5400D02*
Y6000D01*
X23800D01*
X23900Y5900D01*
Y5700D01*
X23800Y5600D01*
X23500D01*
X23700D02*
X23900Y5400D01*
X24500Y6000D02*
X24100D01*
Y5700D01*
X24300Y5800D01*
X24400D01*
X24500Y5700D01*
Y5500D01*
X24400Y5400D01*
X24200D01*
X24100Y5500D01*
X4100Y10700D02*
X4000Y10800D01*
X3800D01*
X3700Y10700D01*
Y10300D01*
X3800Y10200D01*
X4000D01*
X4100Y10300D01*
X4700Y10200D02*
X4300D01*
X4700Y10600D01*
Y10700D01*
X4600Y10800D01*
X4400D01*
X4300Y10700D01*
X3472Y15700D02*
X3372Y15800D01*
X3172D01*
X3072Y15700D01*
Y15300D01*
X3172Y15200D01*
X3372D01*
X3472Y15300D01*
X3672Y15200D02*
X3872D01*
X3772D01*
Y15800D01*
X3672Y15700D01*
X9400Y8300D02*
X9300Y8400D01*
X9100D01*
X9000Y8300D01*
Y7900D01*
X9100Y7800D01*
X9300D01*
X9400Y7900D01*
X9600Y8300D02*
X9700Y8400D01*
X9900D01*
X10000Y8300D01*
Y8200D01*
X9900Y8100D01*
X9800D01*
X9900D01*
X10000Y8000D01*
Y7900D01*
X9900Y7800D01*
X9700D01*
X9600Y7900D01*
X5500Y3300D02*
X5400Y3200D01*
Y3000D01*
X5500Y2900D01*
X5900D01*
X6000Y3000D01*
Y3200D01*
X5900Y3300D01*
X6000Y3800D02*
X5400D01*
X5700Y3500D01*
Y3900D01*
X9000Y5200D02*
Y5800D01*
X9300D01*
X9400Y5700D01*
Y5500D01*
X9300Y5400D01*
X9000D01*
X9200D02*
X9400Y5200D01*
X9900D02*
Y5800D01*
X9600Y5500D01*
X10000D01*
X6400Y500D02*
Y1100D01*
X6700D01*
X6800Y1000D01*
Y800D01*
X6700Y700D01*
X6400D01*
X6600D02*
X6800Y500D01*
X7000D02*
X7200D01*
X7100D01*
Y1100D01*
X7000Y1000D01*
X7500Y500D02*
X7700D01*
X7600D01*
Y1100D01*
X7500Y1000D01*
X10600Y4400D02*
Y4800D01*
X10500Y4900D01*
X10300D01*
X10200Y4800D01*
Y4400D01*
X10300Y4300D01*
X10500D01*
X10400Y4500D02*
X10600Y4300D01*
X10500D02*
X10600Y4400D01*
X10800Y4300D02*
X11000D01*
X10900D01*
Y4900D01*
X10800Y4800D01*
X9000Y6400D02*
Y7000D01*
X9300D01*
X9400Y6900D01*
Y6700D01*
X9300Y6600D01*
X9000D01*
X9200D02*
X9400Y6400D01*
X10000D02*
X9600D01*
X10000Y6800D01*
Y6900D01*
X9900Y7000D01*
X9700D01*
X9600Y6900D01*
X1500Y11000D02*
X2000D01*
X2100Y11100D01*
Y11300D01*
X2000Y11400D01*
X1500D01*
X2100Y11600D02*
Y11800D01*
Y11700D01*
X1500D01*
X1600Y11600D01*
X9000Y9100D02*
Y9700D01*
X9300D01*
X9400Y9600D01*
Y9400D01*
X9300Y9300D01*
X9000D01*
X9200D02*
X9400Y9100D01*
X9600D02*
X9800D01*
X9700D01*
Y9700D01*
X9600Y9600D01*
X10100D02*
X10200Y9700D01*
X10400D01*
X10500Y9600D01*
Y9200D01*
X10400Y9100D01*
X10200D01*
X10100Y9200D01*
Y9600D01*
D16*
X11660Y4520D02*
X11655Y4525D01*
X11650Y4520D01*
X11655Y4515D01*
X11660Y4520D01*
M02*
