G04*
G04 #@! TF.GenerationSoftware,Altium Limited,Altium Designer,18.1.7 (191)*
G04*
G04 Layer_Color=8388736*
%FSLAX43Y43*%
%MOMM*%
G71*
G01*
G75*
G04:AMPARAMS|DCode=17|XSize=1.203mm|YSize=1.103mm|CornerRadius=0.214mm|HoleSize=0mm|Usage=FLASHONLY|Rotation=270.000|XOffset=0mm|YOffset=0mm|HoleType=Round|Shape=RoundedRectangle|*
%AMROUNDEDRECTD17*
21,1,1.203,0.675,0,0,270.0*
21,1,0.775,1.103,0,0,270.0*
1,1,0.428,-0.338,-0.388*
1,1,0.428,-0.338,0.388*
1,1,0.428,0.338,0.388*
1,1,0.428,0.338,-0.388*
%
%ADD17ROUNDEDRECTD17*%
%ADD18R,3.953X3.953*%
%ADD19R,1.053X0.503*%
%ADD20R,0.503X1.053*%
%ADD21R,1.203X0.703*%
%ADD22R,1.503X1.253*%
%ADD23R,1.603X0.603*%
%ADD24R,2.103X2.503*%
%ADD25R,2.103X2.003*%
%ADD26R,1.103X1.203*%
G04:AMPARAMS|DCode=27|XSize=1.203mm|YSize=1.103mm|CornerRadius=0.214mm|HoleSize=0mm|Usage=FLASHONLY|Rotation=0.000|XOffset=0mm|YOffset=0mm|HoleType=Round|Shape=RoundedRectangle|*
%AMROUNDEDRECTD27*
21,1,1.203,0.675,0,0,0.0*
21,1,0.775,1.103,0,0,0.0*
1,1,0.428,0.388,-0.338*
1,1,0.428,-0.388,-0.338*
1,1,0.428,-0.388,0.338*
1,1,0.428,0.388,0.338*
%
%ADD27ROUNDEDRECTD27*%
G04:AMPARAMS|DCode=28|XSize=1.003mm|YSize=1.003mm|CornerRadius=0.202mm|HoleSize=0mm|Usage=FLASHONLY|Rotation=0.000|XOffset=0mm|YOffset=0mm|HoleType=Round|Shape=RoundedRectangle|*
%AMROUNDEDRECTD28*
21,1,1.003,0.600,0,0,0.0*
21,1,0.600,1.003,0,0,0.0*
1,1,0.403,0.300,-0.300*
1,1,0.403,-0.300,-0.300*
1,1,0.403,-0.300,0.300*
1,1,0.403,0.300,0.300*
%
%ADD28ROUNDEDRECTD28*%
G04:AMPARAMS|DCode=29|XSize=0.803mm|YSize=1.203mm|CornerRadius=0.177mm|HoleSize=0mm|Usage=FLASHONLY|Rotation=180.000|XOffset=0mm|YOffset=0mm|HoleType=Round|Shape=RoundedRectangle|*
%AMROUNDEDRECTD29*
21,1,0.803,0.850,0,0,180.0*
21,1,0.450,1.203,0,0,180.0*
1,1,0.353,-0.225,0.425*
1,1,0.353,0.225,0.425*
1,1,0.353,0.225,-0.425*
1,1,0.353,-0.225,-0.425*
%
%ADD29ROUNDEDRECTD29*%
%ADD30R,0.863X1.203*%
G04:AMPARAMS|DCode=31|XSize=1.203mm|YSize=0.863mm|CornerRadius=0.267mm|HoleSize=0mm|Usage=FLASHONLY|Rotation=270.000|XOffset=0mm|YOffset=0mm|HoleType=Round|Shape=RoundedRectangle|*
%AMROUNDEDRECTD31*
21,1,1.203,0.330,0,0,270.0*
21,1,0.670,0.863,0,0,270.0*
1,1,0.533,-0.165,-0.335*
1,1,0.533,-0.165,0.335*
1,1,0.533,0.165,0.335*
1,1,0.533,0.165,-0.335*
%
%ADD31ROUNDEDRECTD31*%
%ADD32C,0.203*%
%ADD33C,1.503*%
D17*
X12250Y11000D02*
D03*
X13950D02*
D03*
X10800Y11600D02*
D03*
X9100D02*
D03*
X7450D02*
D03*
X5750D02*
D03*
X18550Y1100D02*
D03*
X16850D02*
D03*
X16650Y10800D02*
D03*
X18350D02*
D03*
X21400D02*
D03*
X19700D02*
D03*
X21150Y8800D02*
D03*
X22850D02*
D03*
X21150Y7300D02*
D03*
X22850D02*
D03*
X21150Y4300D02*
D03*
X22850D02*
D03*
X21150Y2800D02*
D03*
X22850D02*
D03*
X21150Y5800D02*
D03*
X22850D02*
D03*
X5850Y14600D02*
D03*
X4150D02*
D03*
X6550Y8200D02*
D03*
X8250D02*
D03*
X6550Y3800D02*
D03*
X8250D02*
D03*
X6550Y5300D02*
D03*
X8250D02*
D03*
X8250Y2300D02*
D03*
X6550D02*
D03*
X6550Y6800D02*
D03*
X8250D02*
D03*
X8250Y9700D02*
D03*
X6550D02*
D03*
D18*
X15000Y6600D02*
D03*
D19*
X17550Y8350D02*
D03*
Y7850D02*
D03*
Y7350D02*
D03*
Y6850D02*
D03*
Y6350D02*
D03*
Y5850D02*
D03*
Y5350D02*
D03*
Y4850D02*
D03*
X12450D02*
D03*
Y5350D02*
D03*
Y5850D02*
D03*
Y6350D02*
D03*
Y6850D02*
D03*
Y7350D02*
D03*
Y7850D02*
D03*
Y8350D02*
D03*
D20*
X16750Y4050D02*
D03*
X16250D02*
D03*
X15750D02*
D03*
X15250D02*
D03*
X14750D02*
D03*
X14250D02*
D03*
X13750D02*
D03*
X13250D02*
D03*
Y9150D02*
D03*
X13750D02*
D03*
X14250D02*
D03*
X14750D02*
D03*
X15250D02*
D03*
X15750D02*
D03*
X16250D02*
D03*
X16750D02*
D03*
D21*
X7400Y14100D02*
D03*
Y14800D02*
D03*
Y15500D02*
D03*
D22*
X16500Y14450D02*
D03*
X14200D02*
D03*
Y12600D02*
D03*
X16500D02*
D03*
D23*
X4300Y6900D02*
D03*
Y6250D02*
D03*
Y5600D02*
D03*
Y4950D02*
D03*
Y4300D02*
D03*
D24*
X1450Y9350D02*
D03*
Y1842D02*
D03*
D25*
Y6750D02*
D03*
Y4450D02*
D03*
X4050Y9100D02*
D03*
Y2100D02*
D03*
D26*
X19850Y14400D02*
D03*
X23950D02*
D03*
X19850Y12800D02*
D03*
X23950D02*
D03*
D27*
X18100Y12650D02*
D03*
Y14350D02*
D03*
X12600Y14350D02*
D03*
Y12650D02*
D03*
X18800Y4950D02*
D03*
Y6650D02*
D03*
X4200Y13130D02*
D03*
Y11430D02*
D03*
D28*
X7350Y13070D02*
D03*
X5650D02*
D03*
X15200Y1100D02*
D03*
X13500D02*
D03*
X10850Y13070D02*
D03*
X9150D02*
D03*
D29*
X10700Y1250D02*
D03*
X9750Y3550D02*
D03*
X11650D02*
D03*
D30*
X2750Y14500D02*
D03*
D31*
X1800D02*
D03*
X850D02*
D03*
X2750Y11870D02*
D03*
X850D02*
D03*
D32*
X27900Y13680D02*
D03*
D33*
X28640Y3390D02*
D03*
X26100Y4660D02*
D03*
X28640Y5930D02*
D03*
X26100Y7200D02*
D03*
X28640Y8470D02*
D03*
X26100Y9740D02*
D03*
X28640Y11010D02*
D03*
X26100Y12280D02*
D03*
M02*
