M48
;Layer_Color=9474304
;FILE_FORMAT=4:3
METRIC,TZ
;TYPE=PLATED
T1F00S00C0.300
T2F00S00C0.400
T3F00S00C0.800
;TYPE=NON_PLATED
T4F00S00C1.500
%
T01
X3500Y600
X4600
X4800Y3500
X3900
X5500Y7800
Y8600
X11500Y9150
X12450Y9150
X13500Y8100
Y6600
Y5100
X15000
Y6594
X16500Y6600
Y8100
X15000
X11450Y7700
X16500Y5100
X15250Y3250
X17600Y2000
X19670Y4950
X20400Y8800
X18900Y12600
X16650Y10800
X11600Y14300
X6300Y14700
X1700Y12400
X2900Y10600
T02
X3400Y7400
X18800Y6900
X13900Y10900
X6550Y9700
X700Y13200
T03
X26100Y4660
Y7200
X28640Y5930
Y3390
Y8470
Y11010
X26100Y9740
Y12280
T04
X27900Y13680
M30
