G04*
G04 #@! TF.GenerationSoftware,Altium Limited,Altium Designer,18.1.7 (191)*
G04*
G04 Layer_Physical_Order=1*
G04 Layer_Color=255*
%FSLAX43Y43*%
%MOMM*%
G71*
G01*
G75*
%ADD10C,0.400*%
%ADD16C,0.500*%
G04:AMPARAMS|DCode=34|XSize=1mm|YSize=0.9mm|CornerRadius=0.113mm|HoleSize=0mm|Usage=FLASHONLY|Rotation=270.000|XOffset=0mm|YOffset=0mm|HoleType=Round|Shape=RoundedRectangle|*
%AMROUNDEDRECTD34*
21,1,1.000,0.675,0,0,270.0*
21,1,0.775,0.900,0,0,270.0*
1,1,0.225,-0.338,-0.388*
1,1,0.225,-0.338,0.388*
1,1,0.225,0.338,0.388*
1,1,0.225,0.338,-0.388*
%
%ADD34ROUNDEDRECTD34*%
%ADD35R,3.750X3.750*%
%ADD36R,0.850X0.300*%
%ADD37R,0.300X0.850*%
%ADD38R,1.000X0.500*%
%ADD39R,1.300X1.050*%
%ADD40R,1.400X0.400*%
%ADD41R,1.900X2.300*%
%ADD42R,1.900X1.800*%
%ADD43R,0.900X1.000*%
G04:AMPARAMS|DCode=44|XSize=1mm|YSize=0.9mm|CornerRadius=0.113mm|HoleSize=0mm|Usage=FLASHONLY|Rotation=0.000|XOffset=0mm|YOffset=0mm|HoleType=Round|Shape=RoundedRectangle|*
%AMROUNDEDRECTD44*
21,1,1.000,0.675,0,0,0.0*
21,1,0.775,0.900,0,0,0.0*
1,1,0.225,0.388,-0.338*
1,1,0.225,-0.388,-0.338*
1,1,0.225,-0.388,0.338*
1,1,0.225,0.388,0.338*
%
%ADD44ROUNDEDRECTD44*%
G04:AMPARAMS|DCode=45|XSize=0.8mm|YSize=0.8mm|CornerRadius=0.1mm|HoleSize=0mm|Usage=FLASHONLY|Rotation=0.000|XOffset=0mm|YOffset=0mm|HoleType=Round|Shape=RoundedRectangle|*
%AMROUNDEDRECTD45*
21,1,0.800,0.600,0,0,0.0*
21,1,0.600,0.800,0,0,0.0*
1,1,0.200,0.300,-0.300*
1,1,0.200,-0.300,-0.300*
1,1,0.200,-0.300,0.300*
1,1,0.200,0.300,0.300*
%
%ADD45ROUNDEDRECTD45*%
G04:AMPARAMS|DCode=46|XSize=0.6mm|YSize=1mm|CornerRadius=0.075mm|HoleSize=0mm|Usage=FLASHONLY|Rotation=180.000|XOffset=0mm|YOffset=0mm|HoleType=Round|Shape=RoundedRectangle|*
%AMROUNDEDRECTD46*
21,1,0.600,0.850,0,0,180.0*
21,1,0.450,1.000,0,0,180.0*
1,1,0.150,-0.225,0.425*
1,1,0.150,0.225,0.425*
1,1,0.150,0.225,-0.425*
1,1,0.150,-0.225,-0.425*
%
%ADD46ROUNDEDRECTD46*%
%ADD47R,0.660X1.000*%
G04:AMPARAMS|DCode=48|XSize=1mm|YSize=0.66mm|CornerRadius=0.165mm|HoleSize=0mm|Usage=FLASHONLY|Rotation=270.000|XOffset=0mm|YOffset=0mm|HoleType=Round|Shape=RoundedRectangle|*
%AMROUNDEDRECTD48*
21,1,1.000,0.330,0,0,270.0*
21,1,0.670,0.660,0,0,270.0*
1,1,0.330,-0.165,-0.335*
1,1,0.330,-0.165,0.335*
1,1,0.330,0.165,0.335*
1,1,0.330,0.165,-0.335*
%
%ADD48ROUNDEDRECTD48*%
%ADD49C,0.300*%
%ADD50C,1.300*%
%ADD51C,0.600*%
%ADD52C,0.800*%
G36*
X13350Y15175D02*
X13350Y14936D01*
X13223Y14898D01*
X13213Y14913D01*
X13109Y14982D01*
X12988Y15006D01*
X12750D01*
Y14350D01*
X12600D01*
Y14200D01*
X11894D01*
Y14012D01*
X11914Y13914D01*
X11900Y13900D01*
Y13100D01*
X11914Y13086D01*
X11894Y12988D01*
Y12312D01*
X11918Y12191D01*
X11987Y12087D01*
X12091Y12018D01*
X12212Y11994D01*
X12988D01*
X13109Y12018D01*
X13213Y12087D01*
X13223Y12102D01*
X13350Y12064D01*
Y11875D01*
X14302D01*
X14319Y11829D01*
X14313Y11807D01*
X14228Y11706D01*
X13613D01*
X13514Y11686D01*
X13500Y11700D01*
X12700D01*
X12686Y11686D01*
X12587Y11706D01*
X12400D01*
Y11000D01*
X12250D01*
Y10850D01*
X11594D01*
Y10740D01*
X11467Y10688D01*
X11337Y10817D01*
X11353Y10981D01*
X11363Y10987D01*
X11432Y11091D01*
X11456Y11212D01*
Y11988D01*
X11432Y12109D01*
X11363Y12213D01*
X11259Y12282D01*
X11137Y12306D01*
X10846D01*
X10779Y12433D01*
X10801Y12464D01*
X11150D01*
X11267Y12487D01*
X11366Y12554D01*
X11433Y12653D01*
X11456Y12770D01*
Y13370D01*
X11433Y13487D01*
X11366Y13586D01*
X11267Y13653D01*
X11150Y13676D01*
X10550D01*
X10433Y13653D01*
X10334Y13586D01*
X10323Y13570D01*
X9677D01*
X9666Y13586D01*
X9567Y13653D01*
X9450Y13676D01*
X9149D01*
X8572Y14252D01*
X8457Y14330D01*
X8320Y14357D01*
X8100D01*
Y14507D01*
X8181Y14523D01*
X8313Y14612D01*
X8894Y15192D01*
X13230D01*
X13350Y15175D01*
D02*
G37*
G36*
X2220Y13800D02*
X3280D01*
Y14192D01*
X3498D01*
X3518Y14091D01*
X3587Y13987D01*
X3691Y13918D01*
X3758Y13905D01*
Y13775D01*
X3691Y13762D01*
X3587Y13693D01*
X3518Y13589D01*
X3494Y13467D01*
Y13280D01*
X4200D01*
Y12980D01*
X3494D01*
Y12792D01*
X3514Y12694D01*
X3500Y12680D01*
Y12329D01*
X3263D01*
X3259Y12347D01*
X3178Y12468D01*
X3057Y12549D01*
X2915Y12577D01*
X2585D01*
X2443Y12549D01*
X2322Y12468D01*
X2241Y12347D01*
X2213Y12205D01*
Y11535D01*
X2241Y11393D01*
X2322Y11272D01*
X2443Y11191D01*
X2585Y11163D01*
X2915D01*
X3057Y11191D01*
X3178Y11272D01*
X3259Y11393D01*
X3263Y11411D01*
X3494D01*
Y11092D01*
X3518Y10971D01*
X3587Y10867D01*
X3691Y10798D01*
X3812Y10774D01*
X4407D01*
X5555Y9626D01*
X5704Y9526D01*
X5880Y9491D01*
X5894D01*
Y9312D01*
X5918Y9191D01*
X5987Y9087D01*
X6091Y9018D01*
X6108Y9015D01*
Y8885D01*
X6091Y8882D01*
X5987Y8813D01*
X5918Y8709D01*
X5894Y8587D01*
Y8350D01*
X6550D01*
Y8050D01*
X5894D01*
Y7812D01*
X5918Y7691D01*
X5987Y7587D01*
X6003Y7576D01*
Y7424D01*
X5987Y7413D01*
X5918Y7309D01*
X5894Y7188D01*
Y6649D01*
X5852Y6607D01*
X5200D01*
Y7300D01*
X4339D01*
X4300Y7308D01*
X4105D01*
X4012Y7400D01*
X3965Y7634D01*
X3833Y7833D01*
X3634Y7965D01*
X3400Y8012D01*
X3166Y7965D01*
X2967Y7833D01*
X2835Y7634D01*
X2788Y7400D01*
X2835Y7166D01*
X2967Y6967D01*
X3166Y6835D01*
X3400Y6788D01*
Y5850D01*
Y5200D01*
Y4550D01*
X5200D01*
Y5243D01*
X5894D01*
Y4912D01*
X5918Y4791D01*
X5987Y4687D01*
X6091Y4618D01*
X6108Y4615D01*
Y4485D01*
X6091Y4482D01*
X5987Y4413D01*
X5918Y4309D01*
X5894Y4188D01*
Y3950D01*
X6550D01*
Y3650D01*
X5894D01*
Y3412D01*
X5918Y3291D01*
X5987Y3187D01*
X6091Y3118D01*
X6108Y3115D01*
Y2985D01*
X6091Y2982D01*
X5987Y2913D01*
X5918Y2809D01*
X5894Y2688D01*
Y1913D01*
X5918Y1791D01*
X5987Y1687D01*
X6091Y1618D01*
X6213Y1594D01*
X6233D01*
X6298Y1498D01*
X7098Y698D01*
X7213Y620D01*
X7350Y593D01*
X9157D01*
X9294Y620D01*
X9409Y698D01*
X9605Y893D01*
X10195D01*
Y825D01*
X10216Y718D01*
X10277Y627D01*
X10368Y566D01*
X10475Y545D01*
X10925D01*
X11032Y566D01*
X11123Y627D01*
X11184Y718D01*
X11205Y825D01*
Y1424D01*
X11323Y1473D01*
X11948Y848D01*
X12063Y770D01*
X12200Y743D01*
X12905D01*
X12917Y683D01*
X12984Y584D01*
X13083Y517D01*
X13200Y494D01*
X13800D01*
X13917Y517D01*
X14016Y584D01*
X14027Y600D01*
X14673D01*
X14684Y584D01*
X14783Y517D01*
X14900Y494D01*
X15500D01*
X15617Y517D01*
X15716Y584D01*
X15783Y683D01*
X15795Y743D01*
X16194D01*
Y712D01*
X16218Y591D01*
X16287Y487D01*
X16391Y418D01*
X16513Y394D01*
X17188D01*
X17286Y414D01*
X17300Y400D01*
X18100D01*
X18114Y414D01*
X18212Y394D01*
X18888D01*
X19009Y418D01*
X19113Y487D01*
X19182Y591D01*
X19206Y712D01*
Y1487D01*
X19182Y1609D01*
X19113Y1713D01*
X19009Y1782D01*
X18888Y1806D01*
X18299D01*
X18109Y1996D01*
X18110Y2000D01*
X18071Y2195D01*
X17960Y2360D01*
X17795Y2471D01*
X17726Y2485D01*
X17684Y2623D01*
X18323Y3261D01*
X20184D01*
X20494Y2951D01*
Y2412D01*
X20518Y2291D01*
X20587Y2187D01*
X20691Y2118D01*
X20812Y2094D01*
X21487D01*
X21586Y2114D01*
X21600Y2100D01*
X22400D01*
X22414Y2114D01*
X22513Y2094D01*
X23188D01*
X23309Y2118D01*
X23413Y2187D01*
X23482Y2291D01*
X23506Y2412D01*
Y3188D01*
X23482Y3309D01*
X23413Y3413D01*
X23309Y3482D01*
X23292Y3485D01*
Y3615D01*
X23309Y3618D01*
X23413Y3687D01*
X23482Y3791D01*
X23506Y3912D01*
Y4303D01*
X25328D01*
X25358Y4231D01*
X25494Y4054D01*
X25671Y3918D01*
X25878Y3832D01*
X26100Y3803D01*
X26322Y3832D01*
X26529Y3918D01*
X26706Y4054D01*
X26842Y4231D01*
X26928Y4438D01*
X26957Y4660D01*
X26928Y4882D01*
X26842Y5089D01*
X26706Y5266D01*
X26529Y5402D01*
X26322Y5488D01*
X26100Y5517D01*
X25878Y5488D01*
X25671Y5402D01*
X25494Y5266D01*
X25358Y5089D01*
X25328Y5017D01*
X23386D01*
X23348Y5144D01*
X23413Y5187D01*
X23482Y5291D01*
X23506Y5412D01*
Y5443D01*
X24700D01*
X24837Y5470D01*
X24952Y5548D01*
X25806Y6402D01*
X25878Y6372D01*
X26100Y6343D01*
X26322Y6372D01*
X26529Y6458D01*
X26706Y6594D01*
X26842Y6771D01*
X26928Y6978D01*
X26957Y7200D01*
X26928Y7422D01*
X26842Y7629D01*
X26745Y7756D01*
X26807Y7883D01*
X28019D01*
X28034Y7864D01*
X28211Y7728D01*
X28418Y7642D01*
X28527Y7627D01*
X28573Y7493D01*
X28388Y7308D01*
X28310Y7192D01*
X28283Y7056D01*
Y6702D01*
X28211Y6672D01*
X28034Y6536D01*
X27898Y6359D01*
X27812Y6152D01*
X27783Y5930D01*
X27812Y5708D01*
X27898Y5501D01*
X28034Y5324D01*
X28211Y5188D01*
X28418Y5102D01*
X28640Y5073D01*
X28862Y5102D01*
X29069Y5188D01*
X29246Y5324D01*
X29382Y5501D01*
X29468Y5708D01*
X29497Y5930D01*
X29468Y6152D01*
X29382Y6359D01*
X29246Y6536D01*
X29069Y6672D01*
X28997Y6702D01*
Y6908D01*
X29679Y7590D01*
X29796Y7541D01*
Y204D01*
X204D01*
X204Y12657D01*
X331Y12725D01*
X466Y12635D01*
X700Y12588D01*
X934Y12635D01*
X1133Y12767D01*
X1265Y12966D01*
X1312Y13200D01*
X1265Y13434D01*
X1133Y13633D01*
X1108Y13649D01*
Y13811D01*
X1157Y13821D01*
X1278Y13902D01*
X1359Y14023D01*
X1387Y14165D01*
Y14835D01*
X1381Y14865D01*
X1485Y14992D01*
X2220D01*
Y13800D01*
D02*
G37*
G36*
X29796Y9625D02*
X29679Y9576D01*
X29532Y9722D01*
X29417Y9800D01*
X29280Y9827D01*
X28170D01*
X28033Y9800D01*
X27918Y9722D01*
X27292Y9097D01*
X26838D01*
X26775Y9224D01*
X26842Y9311D01*
X26928Y9518D01*
X26957Y9740D01*
X26928Y9962D01*
X26842Y10169D01*
X26706Y10346D01*
X26529Y10482D01*
X26322Y10568D01*
X26100Y10597D01*
X25878Y10568D01*
X25671Y10482D01*
X25494Y10346D01*
X25358Y10169D01*
X25328Y10097D01*
X22320D01*
X22183Y10070D01*
X22068Y9992D01*
X21748Y9672D01*
X21670Y9557D01*
X21659Y9500D01*
X21600D01*
X21586Y9486D01*
X21487Y9506D01*
X20812D01*
X20691Y9482D01*
X20587Y9413D01*
X20518Y9309D01*
X20514Y9287D01*
X20400Y9310D01*
X20205Y9271D01*
X20040Y9160D01*
X19929Y8995D01*
X19890Y8800D01*
X19929Y8605D01*
X19956Y8564D01*
X19857Y8483D01*
X19739Y8602D01*
X19623Y8680D01*
X19486Y8707D01*
X17550D01*
X17516Y8700D01*
X17100D01*
Y9093D01*
X17750D01*
X17887Y9120D01*
X18002Y9198D01*
X18398Y9593D01*
X20229D01*
X20366Y9620D01*
X20481Y9698D01*
X20752Y9969D01*
X20830Y10084D01*
X20833Y10100D01*
X20950D01*
X20964Y10114D01*
X21062Y10094D01*
X21250D01*
Y10800D01*
Y11506D01*
X21062D01*
X20980Y11490D01*
X20857Y11551D01*
Y12150D01*
X20830Y12287D01*
X20752Y12402D01*
X20500Y12655D01*
Y13500D01*
X19200D01*
Y12476D01*
X18910Y12186D01*
X18793Y12249D01*
X18806Y12312D01*
Y12500D01*
X18100D01*
Y12800D01*
X18806D01*
Y12987D01*
X18786Y13086D01*
X18800Y13100D01*
Y13900D01*
X18786Y13914D01*
X18806Y14012D01*
Y14687D01*
X18782Y14809D01*
X18713Y14913D01*
X18609Y14982D01*
X18487Y15006D01*
X17712D01*
X17591Y14982D01*
X17487Y14913D01*
X17477Y14898D01*
X17350Y14936D01*
Y15175D01*
X17470Y15192D01*
X24531D01*
X25692Y14031D01*
Y13031D01*
X25671Y13022D01*
X25494Y12886D01*
X25358Y12709D01*
X25272Y12502D01*
X25243Y12280D01*
X25272Y12058D01*
X25358Y11851D01*
X25494Y11674D01*
X25671Y11538D01*
X25878Y11452D01*
X26100Y11423D01*
X26322Y11452D01*
X26529Y11538D01*
X26706Y11674D01*
X26842Y11851D01*
X26928Y12058D01*
X26957Y12280D01*
X26928Y12502D01*
X26842Y12709D01*
X26706Y12886D01*
X26529Y13022D01*
X26508Y13031D01*
Y14200D01*
X26508Y14200D01*
X26477Y14356D01*
X26388Y14488D01*
X26388Y14488D01*
X25198Y15679D01*
X25247Y15796D01*
X29796D01*
Y9625D01*
D02*
G37*
G36*
X20494Y6001D02*
Y5412D01*
X20518Y5291D01*
X20587Y5187D01*
X20691Y5118D01*
X20708Y5115D01*
Y4985D01*
X20691Y4982D01*
X20587Y4913D01*
X20518Y4809D01*
X20494Y4688D01*
Y4475D01*
X19608D01*
X19504Y4602D01*
X19506Y4613D01*
Y4800D01*
X18800D01*
Y5100D01*
X19506D01*
Y5287D01*
X19486Y5386D01*
X19500Y5400D01*
Y6200D01*
X19486Y6214D01*
X19506Y6312D01*
Y6810D01*
X19633Y6862D01*
X20494Y6001D01*
D02*
G37*
%LPC*%
G36*
X12450Y15006D02*
X12212D01*
X12091Y14982D01*
X11987Y14913D01*
X11918Y14809D01*
X11894Y14688D01*
Y14500D01*
X12450D01*
Y15006D01*
D02*
G37*
G36*
X12100Y11706D02*
X11913D01*
X11791Y11682D01*
X11687Y11613D01*
X11618Y11509D01*
X11594Y11387D01*
Y11150D01*
X12100D01*
Y11706D01*
D02*
G37*
G36*
X27900Y14638D02*
X27652Y14606D01*
X27421Y14510D01*
X27222Y14358D01*
X27070Y14159D01*
X26974Y13928D01*
X26942Y13680D01*
X26974Y13432D01*
X27070Y13201D01*
X27222Y13002D01*
X27421Y12850D01*
X27652Y12754D01*
X27900Y12722D01*
X28148Y12754D01*
X28379Y12850D01*
X28578Y13002D01*
X28730Y13201D01*
X28826Y13432D01*
X28858Y13680D01*
X28826Y13928D01*
X28730Y14159D01*
X28578Y14358D01*
X28379Y14510D01*
X28148Y14606D01*
X27900Y14638D01*
D02*
G37*
G36*
X24600Y13500D02*
X23300D01*
Y12100D01*
X24600D01*
Y13500D01*
D02*
G37*
G36*
X21737Y11506D02*
X21550D01*
Y10950D01*
X22056D01*
Y11188D01*
X22032Y11309D01*
X21963Y11413D01*
X21859Y11482D01*
X21737Y11506D01*
D02*
G37*
G36*
X28640Y11867D02*
X28418Y11838D01*
X28211Y11752D01*
X28034Y11616D01*
X27898Y11439D01*
X27812Y11232D01*
X27783Y11010D01*
X27812Y10788D01*
X27898Y10581D01*
X28034Y10404D01*
X28211Y10268D01*
X28418Y10182D01*
X28640Y10153D01*
X28862Y10182D01*
X29069Y10268D01*
X29246Y10404D01*
X29382Y10581D01*
X29468Y10788D01*
X29497Y11010D01*
X29468Y11232D01*
X29382Y11439D01*
X29246Y11616D01*
X29069Y11752D01*
X28862Y11838D01*
X28640Y11867D01*
D02*
G37*
G36*
X22056Y10650D02*
X21550D01*
Y10094D01*
X21737D01*
X21859Y10118D01*
X21963Y10187D01*
X22032Y10291D01*
X22056Y10413D01*
Y10650D01*
D02*
G37*
%LPD*%
D10*
X7400Y14900D02*
X8025D01*
X7400D02*
Y15500D01*
X5050D02*
X7400D01*
X4150Y14600D02*
X5050Y15500D01*
X8025Y14900D02*
X8725Y15600D01*
X24700D01*
X3400Y7400D02*
X3900Y6900D01*
X4300D01*
X5780Y11600D02*
X7350Y13170D01*
X5750Y11600D02*
X5780D01*
X9280D02*
X10850Y13170D01*
X9100Y11600D02*
X9280D01*
X26100Y12280D02*
Y14200D01*
X24700Y15600D02*
X26100Y14200D01*
X2750Y14500D02*
X2850Y14600D01*
X4150D01*
X2400Y15400D02*
X2750Y15050D01*
X1200Y15400D02*
X2400D01*
X850Y15050D02*
X1200Y15400D01*
X850Y14500D02*
Y15050D01*
X700Y14350D02*
X850Y14500D01*
X700Y13200D02*
Y14350D01*
X2750Y14500D02*
Y15050D01*
D16*
X5650Y13070D02*
X5872D01*
X6902Y14100D01*
X5650Y13020D02*
Y13070D01*
X6902Y14100D02*
X7400D01*
X4200Y11571D02*
X5650Y13020D01*
X4200Y11430D02*
Y11571D01*
X18850Y12650D02*
X18900Y12600D01*
X18100Y12650D02*
X18850D01*
X3760Y11870D02*
X4200Y11430D01*
X2750Y11870D02*
X3760D01*
X6300Y9950D02*
X6550Y9700D01*
X5880Y9950D02*
X6300D01*
X4399Y11430D02*
X5880Y9950D01*
X4200Y11430D02*
X4399D01*
D34*
X12250Y11000D02*
D03*
X13950D02*
D03*
X10800Y11600D02*
D03*
X9100D02*
D03*
X7450D02*
D03*
X5750D02*
D03*
X18550Y1100D02*
D03*
X16850D02*
D03*
X16650Y10800D02*
D03*
X18350D02*
D03*
X21400D02*
D03*
X19700D02*
D03*
X21150Y8800D02*
D03*
X22850D02*
D03*
X21150Y7300D02*
D03*
X22850D02*
D03*
X21150Y4300D02*
D03*
X22850D02*
D03*
X21150Y2800D02*
D03*
X22850D02*
D03*
X21150Y5800D02*
D03*
X22850D02*
D03*
X5850Y14600D02*
D03*
X4150D02*
D03*
X6550Y8200D02*
D03*
X8250D02*
D03*
X6550Y3800D02*
D03*
X8250D02*
D03*
X6550Y5300D02*
D03*
X8250D02*
D03*
X8250Y2300D02*
D03*
X6550D02*
D03*
X6550Y6800D02*
D03*
X8250D02*
D03*
X8250Y9700D02*
D03*
X6550D02*
D03*
D35*
X15000Y6600D02*
D03*
D36*
X17550Y8350D02*
D03*
Y7850D02*
D03*
Y7350D02*
D03*
Y6850D02*
D03*
Y6350D02*
D03*
Y5850D02*
D03*
Y5350D02*
D03*
Y4850D02*
D03*
X12450D02*
D03*
Y5350D02*
D03*
Y5850D02*
D03*
Y6350D02*
D03*
Y6850D02*
D03*
Y7350D02*
D03*
Y7850D02*
D03*
Y8350D02*
D03*
D37*
X16750Y4050D02*
D03*
X16250D02*
D03*
X15750D02*
D03*
X15250D02*
D03*
X14750D02*
D03*
X14250D02*
D03*
X13750D02*
D03*
X13250D02*
D03*
Y9150D02*
D03*
X13750D02*
D03*
X14250D02*
D03*
X14750D02*
D03*
X15250D02*
D03*
X15750D02*
D03*
X16250D02*
D03*
X16750D02*
D03*
D38*
X7400Y14100D02*
D03*
Y14800D02*
D03*
Y15500D02*
D03*
D39*
X16500Y14450D02*
D03*
X14200D02*
D03*
Y12600D02*
D03*
X16500D02*
D03*
D40*
X4300Y6900D02*
D03*
Y6250D02*
D03*
Y5600D02*
D03*
Y4950D02*
D03*
Y4300D02*
D03*
D41*
X1450Y9350D02*
D03*
Y1842D02*
D03*
D42*
Y6750D02*
D03*
Y4450D02*
D03*
X4050Y9100D02*
D03*
Y2100D02*
D03*
D43*
X19850Y14400D02*
D03*
X23950D02*
D03*
X19850Y12800D02*
D03*
X23950D02*
D03*
D44*
X18100Y12650D02*
D03*
Y14350D02*
D03*
X12600Y14350D02*
D03*
Y12650D02*
D03*
X18800Y4950D02*
D03*
Y6650D02*
D03*
X4200Y13130D02*
D03*
Y11430D02*
D03*
D45*
X7350Y13070D02*
D03*
X5650D02*
D03*
X15200Y1100D02*
D03*
X13500D02*
D03*
X10850Y13070D02*
D03*
X9150D02*
D03*
D46*
X10700Y1250D02*
D03*
X9750Y3550D02*
D03*
X11650D02*
D03*
D47*
X2750Y14500D02*
D03*
D48*
X1800D02*
D03*
X850D02*
D03*
X2750Y11870D02*
D03*
X850D02*
D03*
D49*
X17550Y7850D02*
X19150D01*
X21150Y5850D01*
X18800Y4950D02*
X19670D01*
X20968Y4118D02*
X21150Y4300D01*
X17968Y4118D02*
X20968D01*
X16450Y2600D02*
X17968Y4118D01*
X20332Y3618D02*
X21150Y2800D01*
X18175Y3618D02*
X20332D01*
X16657Y2100D02*
X18175Y3618D01*
X16750Y9450D02*
X17750D01*
X16750Y9150D02*
Y9450D01*
X17750D02*
X18250Y9950D01*
X7400Y14200D02*
X7600Y14000D01*
X8320D02*
X9150Y13170D01*
X7600Y14000D02*
X8320D01*
X19486Y8350D02*
X20536Y7300D01*
X21150D01*
X20400Y8800D02*
X20400Y8800D01*
X21150D01*
Y5800D02*
Y5850D01*
X17550Y8350D02*
X19486D01*
X11650Y10000D02*
X13470D01*
X10600Y11050D02*
X11650Y10000D01*
X10050Y10600D02*
X11500Y9150D01*
X9600Y8350D02*
X12450D01*
X11450Y7200D02*
Y7700D01*
X12750Y3476D02*
Y4850D01*
X12750Y3476D02*
X12750Y3476D01*
X12750Y4850D02*
X12750Y4850D01*
X22910Y8740D02*
X27440D01*
X22850Y8800D02*
X22910Y8740D01*
X28170Y9470D02*
X29280D01*
X27440Y8740D02*
X28170Y9470D01*
X28410Y8240D02*
X28640Y8470D01*
X25340Y8240D02*
X28410D01*
X24400Y7300D02*
X25340Y8240D01*
X29280Y9470D02*
X29640Y9110D01*
Y8056D02*
Y9110D01*
X28640Y7056D02*
X29640Y8056D01*
X28640Y5930D02*
Y7056D01*
X22320Y9740D02*
X26100D01*
X22000Y9420D02*
X22320Y9740D01*
X22000Y3650D02*
Y9420D01*
Y3650D02*
X22850Y2800D01*
Y7300D02*
X24400D01*
X24700Y5800D02*
X26100Y7200D01*
X22850Y5800D02*
X24700D01*
X22850Y4300D02*
X23210Y4660D01*
X26100D01*
X14750Y9150D02*
Y12050D01*
X15250Y9150D02*
Y13200D01*
X16050Y11650D02*
X18879D01*
X15750Y11350D02*
X16050Y11650D01*
X15750Y9150D02*
Y11350D01*
X16480Y9950D02*
X17500D01*
X16250Y9720D02*
X16480Y9950D01*
X16250Y9150D02*
Y9720D01*
X15250Y13200D02*
X16500Y14450D01*
X17550Y6850D02*
X18700D01*
X8250Y2300D02*
Y3800D01*
X12200Y1100D02*
X13500D01*
X9750Y3550D02*
X12200Y1100D01*
X9750Y2250D02*
Y3451D01*
X8950Y1450D02*
X9750Y2250D01*
X6550Y1750D02*
Y2300D01*
Y1750D02*
X7350Y950D01*
X9157D01*
X9457Y1250D01*
X10700D01*
X7721Y1450D02*
X8950D01*
X7350Y1821D02*
X7721Y1450D01*
X7350Y1821D02*
Y8900D01*
X6550Y9700D02*
X7350Y8900D01*
X15200Y1100D02*
X16850D01*
X17600Y2000D02*
X18500Y1100D01*
X18550D01*
X13712Y2100D02*
X16657D01*
X13919Y2600D02*
X16450D01*
X15250Y3250D02*
Y4050D01*
X6250Y5600D02*
X6550Y5300D01*
X4300Y5600D02*
X6250D01*
X6000Y6250D02*
X6550Y6800D01*
X4300Y6250D02*
X6000D01*
X16500Y14450D02*
X16600Y14350D01*
X18100D01*
X14150Y12650D02*
X14200Y12600D01*
X12600Y12650D02*
X14150D01*
X8400Y10600D02*
X10050D01*
X7450Y11550D02*
X8400Y10600D01*
X7450Y11550D02*
Y11600D01*
X10600Y11050D02*
Y11600D01*
X8250Y3800D02*
X8250Y3800D01*
Y5300D01*
X11850Y5350D02*
X12450D01*
X11650Y5150D02*
X11850Y5350D01*
X11650Y3550D02*
Y5150D01*
X8250Y5300D02*
X8800Y5850D01*
X8700Y6350D02*
X12450D01*
X8250Y9700D02*
X9600Y8350D01*
X13250Y3269D02*
X13919Y2600D01*
X12750Y3062D02*
X13712Y2100D01*
X12750Y3062D02*
Y3476D01*
X13250Y3269D02*
Y4050D01*
X13470Y10000D02*
X13750Y9720D01*
X11450Y7200D02*
X11800Y6850D01*
X19850Y12621D02*
Y12800D01*
X18879Y11650D02*
X19850Y12621D01*
Y12800D02*
X20500Y12150D01*
Y10221D02*
Y12150D01*
X20229Y9950D02*
X20500Y10221D01*
X18250Y9950D02*
X20229D01*
X18350Y10800D02*
X19700D01*
X17500Y9950D02*
X18350Y10800D01*
X12450Y4850D02*
X12750D01*
X8800Y5850D02*
X12450D01*
X8250Y6800D02*
X8700Y6350D01*
X11800Y6850D02*
X12450D01*
X8250Y6800D02*
X8250Y6800D01*
X8250Y6800D02*
Y8200D01*
X14250Y9150D02*
Y10600D01*
X14200Y12600D02*
X14750Y12050D01*
X13750Y9150D02*
Y9720D01*
X12450Y9150D02*
X13250D01*
D50*
X28640Y3390D02*
D03*
X26100Y4660D02*
D03*
X28640Y5930D02*
D03*
X26100Y7200D02*
D03*
X28640Y8470D02*
D03*
X26100Y9740D02*
D03*
X28640Y11010D02*
D03*
X26100Y12280D02*
D03*
D51*
X19670Y4950D02*
D03*
X6300Y14700D02*
D03*
X5500Y8600D02*
D03*
X4600Y600D02*
D03*
X3500D02*
D03*
X3900Y3500D02*
D03*
X4800D02*
D03*
X5500Y7800D02*
D03*
X2900Y10600D02*
D03*
X1700Y12400D02*
D03*
X18900Y12600D02*
D03*
X11600Y14300D02*
D03*
X20400Y8800D02*
D03*
X11500Y9150D02*
D03*
X11450Y7700D02*
D03*
X16500Y8100D02*
D03*
Y6600D02*
D03*
Y5100D02*
D03*
X15000D02*
D03*
X13500Y6600D02*
D03*
Y5100D02*
D03*
Y8100D02*
D03*
X15000D02*
D03*
Y6594D02*
D03*
X16650Y10800D02*
D03*
X17600Y2000D02*
D03*
X15250Y3250D02*
D03*
X12450Y9150D02*
D03*
D52*
X18800Y6900D02*
D03*
X13900Y10900D02*
D03*
X6550Y9700D02*
D03*
X700Y13200D02*
D03*
X3400Y7400D02*
D03*
M02*
