G04*
G04 #@! TF.GenerationSoftware,Altium Limited,Altium Designer,18.1.7 (191)*
G04*
G04 Layer_Physical_Order=2*
G04 Layer_Color=16711680*
%FSLAX43Y43*%
%MOMM*%
G71*
G01*
G75*
%ADD10C,0.400*%
%ADD16C,0.500*%
%ADD49C,0.300*%
%ADD50C,1.300*%
%ADD51C,0.600*%
%ADD52C,0.800*%
G36*
X29796Y204D02*
X204D01*
X204Y9849D01*
X225Y9864D01*
X398Y9833D01*
X412Y9812D01*
X2794Y7429D01*
X2788Y7400D01*
X2835Y7166D01*
X2967Y6967D01*
X3166Y6835D01*
X3400Y6788D01*
X3634Y6835D01*
X3833Y6967D01*
X3965Y7166D01*
X4012Y7400D01*
X3965Y7634D01*
X3833Y7833D01*
X3634Y7965D01*
X3400Y8012D01*
X3371Y8006D01*
X1108Y10269D01*
Y12751D01*
X1133Y12767D01*
X1265Y12966D01*
X1312Y13200D01*
X1265Y13434D01*
X1133Y13633D01*
X934Y13765D01*
X700Y13812D01*
X466Y13765D01*
X331Y13675D01*
X204Y13743D01*
Y15796D01*
X29796D01*
X29796Y204D01*
D02*
G37*
%LPC*%
G36*
X27900Y14638D02*
X27652Y14606D01*
X27421Y14510D01*
X27222Y14358D01*
X27070Y14159D01*
X26974Y13928D01*
X26942Y13680D01*
X26974Y13432D01*
X27070Y13201D01*
X27222Y13002D01*
X27421Y12850D01*
X27652Y12754D01*
X27900Y12722D01*
X28148Y12754D01*
X28379Y12850D01*
X28578Y13002D01*
X28730Y13201D01*
X28826Y13432D01*
X28858Y13680D01*
X28826Y13928D01*
X28730Y14159D01*
X28578Y14358D01*
X28379Y14510D01*
X28148Y14606D01*
X27900Y14638D01*
D02*
G37*
G36*
X26100Y13137D02*
X25878Y13108D01*
X25671Y13022D01*
X25494Y12886D01*
X25358Y12709D01*
X25272Y12502D01*
X25243Y12280D01*
X25272Y12058D01*
X25358Y11851D01*
X25494Y11674D01*
X25671Y11538D01*
X25878Y11452D01*
X26100Y11423D01*
X26322Y11452D01*
X26529Y11538D01*
X26706Y11674D01*
X26842Y11851D01*
X26928Y12058D01*
X26957Y12280D01*
X26928Y12502D01*
X26842Y12709D01*
X26706Y12886D01*
X26529Y13022D01*
X26322Y13108D01*
X26100Y13137D01*
D02*
G37*
G36*
X13900Y11512D02*
X13666Y11465D01*
X13507Y11359D01*
X12800D01*
X12624Y11324D01*
X12476Y11224D01*
X11610Y10359D01*
X11189D01*
X11014Y10324D01*
X10865Y10224D01*
X10799Y10159D01*
X6943D01*
X6784Y10265D01*
X6550Y10312D01*
X6316Y10265D01*
X6117Y10133D01*
X5985Y9934D01*
X5938Y9700D01*
X5985Y9466D01*
X6117Y9267D01*
X6316Y9135D01*
X6550Y9088D01*
X6784Y9135D01*
X6943Y9241D01*
X10879D01*
X10990Y9150D01*
X11029Y8955D01*
X11140Y8790D01*
X11143Y8787D01*
Y8096D01*
X11090Y8060D01*
X10979Y7895D01*
X10940Y7700D01*
X10979Y7505D01*
X11090Y7340D01*
X11255Y7229D01*
X11450Y7190D01*
X11645Y7229D01*
X11810Y7340D01*
X11921Y7505D01*
X11960Y7700D01*
X11921Y7895D01*
X11857Y7991D01*
Y8787D01*
X11860Y8790D01*
X11899Y8847D01*
X12051D01*
X12090Y8790D01*
X12255Y8679D01*
X12450Y8640D01*
X12645Y8679D01*
X12810Y8790D01*
X12921Y8955D01*
X12960Y9150D01*
X12921Y9345D01*
X12892Y9388D01*
X13248Y9743D01*
X16252D01*
X17643Y8352D01*
Y6569D01*
X17670Y6432D01*
X17748Y6316D01*
X18216Y5848D01*
X18332Y5770D01*
X18469Y5743D01*
X19131D01*
X19268Y5770D01*
X19384Y5848D01*
X19852Y6316D01*
X19930Y6432D01*
X19957Y6569D01*
Y7852D01*
X20396Y8291D01*
X20400Y8290D01*
X20595Y8329D01*
X20760Y8440D01*
X20871Y8605D01*
X20910Y8800D01*
X20871Y8995D01*
X20760Y9160D01*
X20595Y9271D01*
X20400Y9310D01*
X20205Y9271D01*
X20040Y9160D01*
X19929Y8995D01*
X19890Y8800D01*
X19891Y8796D01*
X19386Y8290D01*
X19259Y8343D01*
Y8700D01*
X19224Y8876D01*
X19124Y9024D01*
X17055Y11094D01*
X17010Y11160D01*
X16944Y11205D01*
X16924Y11224D01*
X16776Y11324D01*
X16600Y11359D01*
X14293D01*
X14134Y11465D01*
X13900Y11512D01*
D02*
G37*
G36*
X28640Y11867D02*
X28418Y11838D01*
X28211Y11752D01*
X28034Y11616D01*
X27898Y11439D01*
X27812Y11232D01*
X27783Y11010D01*
X27812Y10788D01*
X27898Y10581D01*
X28034Y10404D01*
X28211Y10268D01*
X28418Y10182D01*
X28640Y10153D01*
X28862Y10182D01*
X29069Y10268D01*
X29246Y10404D01*
X29382Y10581D01*
X29468Y10788D01*
X29497Y11010D01*
X29468Y11232D01*
X29382Y11439D01*
X29246Y11616D01*
X29069Y11752D01*
X28862Y11838D01*
X28640Y11867D01*
D02*
G37*
G36*
X26100Y10597D02*
X25878Y10568D01*
X25671Y10482D01*
X25494Y10346D01*
X25358Y10169D01*
X25272Y9962D01*
X25243Y9740D01*
X25272Y9518D01*
X25358Y9311D01*
X25494Y9134D01*
X25671Y8998D01*
X25878Y8912D01*
X26100Y8883D01*
X26322Y8912D01*
X26529Y8998D01*
X26706Y9134D01*
X26842Y9311D01*
X26928Y9518D01*
X26957Y9740D01*
X26928Y9962D01*
X26842Y10169D01*
X26706Y10346D01*
X26529Y10482D01*
X26322Y10568D01*
X26100Y10597D01*
D02*
G37*
G36*
X28640Y9327D02*
X28418Y9298D01*
X28211Y9212D01*
X28034Y9076D01*
X27898Y8899D01*
X27812Y8692D01*
X27783Y8470D01*
X27812Y8248D01*
X27898Y8041D01*
X28034Y7864D01*
X28211Y7728D01*
X28418Y7642D01*
X28640Y7613D01*
X28862Y7642D01*
X29069Y7728D01*
X29246Y7864D01*
X29382Y8041D01*
X29468Y8248D01*
X29497Y8470D01*
X29468Y8692D01*
X29382Y8899D01*
X29246Y9076D01*
X29069Y9212D01*
X28862Y9298D01*
X28640Y9327D01*
D02*
G37*
G36*
X26100Y8057D02*
X25878Y8028D01*
X25671Y7942D01*
X25494Y7806D01*
X25358Y7629D01*
X25272Y7422D01*
X25243Y7200D01*
X25272Y6978D01*
X25358Y6771D01*
X25494Y6594D01*
X25671Y6458D01*
X25878Y6372D01*
X26100Y6343D01*
X26322Y6372D01*
X26529Y6458D01*
X26706Y6594D01*
X26842Y6771D01*
X26928Y6978D01*
X26957Y7200D01*
X26928Y7422D01*
X26842Y7629D01*
X26706Y7806D01*
X26529Y7942D01*
X26322Y8028D01*
X26100Y8057D01*
D02*
G37*
G36*
X28640Y6787D02*
X28418Y6758D01*
X28211Y6672D01*
X28034Y6536D01*
X27898Y6359D01*
X27812Y6152D01*
X27783Y5930D01*
X27812Y5708D01*
X27898Y5501D01*
X28034Y5324D01*
X28211Y5188D01*
X28418Y5102D01*
X28640Y5073D01*
X28862Y5102D01*
X29069Y5188D01*
X29246Y5324D01*
X29382Y5501D01*
X29468Y5708D01*
X29497Y5930D01*
X29468Y6152D01*
X29382Y6359D01*
X29246Y6536D01*
X29069Y6672D01*
X28862Y6758D01*
X28640Y6787D01*
D02*
G37*
G36*
X26100Y5517D02*
X25878Y5488D01*
X25671Y5402D01*
X25494Y5266D01*
X25358Y5089D01*
X25272Y4882D01*
X25243Y4660D01*
X25272Y4438D01*
X25358Y4231D01*
X25494Y4054D01*
X25671Y3918D01*
X25878Y3832D01*
X26100Y3803D01*
X26322Y3832D01*
X26529Y3918D01*
X26706Y4054D01*
X26842Y4231D01*
X26928Y4438D01*
X26957Y4660D01*
X26928Y4882D01*
X26842Y5089D01*
X26706Y5266D01*
X26529Y5402D01*
X26322Y5488D01*
X26100Y5517D01*
D02*
G37*
G36*
X15250Y3760D02*
X15055Y3721D01*
X14890Y3610D01*
X14779Y3445D01*
X14740Y3250D01*
X14779Y3055D01*
X14890Y2890D01*
X15055Y2779D01*
X15250Y2740D01*
X15254Y2741D01*
X16248Y1748D01*
X16363Y1670D01*
X16500Y1643D01*
X17237D01*
X17240Y1640D01*
X17405Y1529D01*
X17600Y1490D01*
X17795Y1529D01*
X17960Y1640D01*
X18071Y1805D01*
X18110Y2000D01*
X18071Y2195D01*
X17960Y2360D01*
X17795Y2471D01*
X17600Y2510D01*
X17405Y2471D01*
X17240Y2360D01*
X17237Y2357D01*
X16648D01*
X15759Y3246D01*
X15760Y3250D01*
X15721Y3445D01*
X15610Y3610D01*
X15445Y3721D01*
X15250Y3760D01*
D02*
G37*
%LPD*%
D10*
X700Y10100D02*
Y13200D01*
Y10100D02*
X3400Y7400D01*
D16*
X16600Y10900D02*
X18800Y8700D01*
X11800Y9900D02*
X12800Y10900D01*
X11189Y9900D02*
X11800D01*
X12800Y10900D02*
X13900D01*
X10989Y9700D02*
X11189Y9900D01*
X18800Y6900D02*
Y8700D01*
X13900Y10900D02*
X16600D01*
X6550Y9700D02*
X10989D01*
D49*
X13100Y10100D02*
X16400D01*
X12400Y9400D02*
X13100Y10100D01*
X12400Y9200D02*
Y9400D01*
X16400Y10100D02*
X18000Y8500D01*
Y6569D02*
Y8500D01*
Y6569D02*
X18469Y6100D01*
X19131D01*
X19600Y6569D01*
Y8000D01*
X20400Y8800D01*
X11500Y7750D02*
Y9150D01*
X11450Y7700D02*
X11500Y7750D01*
X16500Y2000D02*
X17600D01*
X15250Y3250D02*
X16500Y2000D01*
D50*
X28640Y3390D02*
D03*
X26100Y4660D02*
D03*
X28640Y5930D02*
D03*
X26100Y7200D02*
D03*
X28640Y8470D02*
D03*
X26100Y9740D02*
D03*
X28640Y11010D02*
D03*
X26100Y12280D02*
D03*
D51*
X19670Y4950D02*
D03*
X6300Y14700D02*
D03*
X5500Y8600D02*
D03*
X4600Y600D02*
D03*
X3500D02*
D03*
X3900Y3500D02*
D03*
X4800D02*
D03*
X5500Y7800D02*
D03*
X2900Y10600D02*
D03*
X1700Y12400D02*
D03*
X18900Y12600D02*
D03*
X11600Y14300D02*
D03*
X20400Y8800D02*
D03*
X11500Y9150D02*
D03*
X11450Y7700D02*
D03*
X16500Y8100D02*
D03*
Y6600D02*
D03*
Y5100D02*
D03*
X15000D02*
D03*
X13500Y6600D02*
D03*
Y5100D02*
D03*
Y8100D02*
D03*
X15000D02*
D03*
Y6594D02*
D03*
X16650Y10800D02*
D03*
X17600Y2000D02*
D03*
X15250Y3250D02*
D03*
X12450Y9150D02*
D03*
D52*
X18800Y6900D02*
D03*
X13900Y10900D02*
D03*
X6550Y9700D02*
D03*
X700Y13200D02*
D03*
X3400Y7400D02*
D03*
M02*
